<svg width="67" height="67" viewBox="0 0 67 67" fill="none" xmlns="http://www.w3.org/2000/svg">
<path d="M19.5417 58.625V53.0417H30.7083V44.3875C28.4285 43.8757 26.3933 42.9107 24.603 41.4925C22.8126 40.0744 21.4977 38.2942 20.6583 36.1521C17.1687 35.7333 14.2496 34.21 11.9009 31.5821C9.55215 28.9542 8.37686 25.8713 8.375 22.3333V19.5417C8.375 18.0063 8.92217 16.6923 10.0165 15.5998C11.1108 14.5074 12.4248 13.9602 13.9583 13.9583H19.5417V8.375H47.4583V13.9583H53.0417C54.5771 13.9583 55.892 14.5055 56.9863 15.5998C58.0806 16.6942 58.6269 18.0081 58.625 19.5417V22.3333C58.625 25.8694 57.4497 28.9524 55.0991 31.5821C52.7485 34.2119 49.8294 35.7352 46.3417 36.1521C45.5042 38.2924 44.1902 40.0725 42.3998 41.4925C40.6094 42.9126 38.5734 43.8776 36.2917 44.3875V53.0417H47.4583V58.625H19.5417ZM19.5417 30.15V19.5417H13.9583V22.3333C13.9583 24.1014 14.4701 25.6954 15.4938 27.1155C16.5174 28.5355 17.8667 29.547 19.5417 30.15ZM33.5 39.0833C35.8264 39.0833 37.8038 38.2691 39.4323 36.6406C41.0608 35.0122 41.875 33.0347 41.875 30.7083V13.9583H25.125V30.7083C25.125 33.0347 25.9392 35.0122 27.5677 36.6406C29.1962 38.2691 31.1736 39.0833 33.5 39.0833ZM47.4583 30.15C49.1333 29.5451 50.4826 28.5327 51.5062 27.1127C52.5299 25.6926 53.0417 24.0995 53.0417 22.3333V19.5417H47.4583V30.15Z" fill="#BEBEBE"/>
</svg>
