<svg width="360" height="740" viewBox="0 0 360 740" fill="none" xmlns="http://www.w3.org/2000/svg">
<g clip-path="url(#clip0_95_6341)">
<path d="M69.1689 298.956C69.1689 298.956 -128.534 380.345 -101.452 589.243C-74.3689 798.142 131.459 827.984 163.958 827.984C196.457 827.984 345.412 830.697 415.826 722.179C486.241 613.66 423.951 445.456 415.826 427.035C408.27 409.916 318.329 214.854 69.1689 298.956Z" fill="#D4E792"/>
<path d="M133.815 518.652C150.268 518.652 163.606 505.291 163.606 488.809C163.606 472.328 150.268 458.967 133.815 458.967C117.362 458.967 104.024 472.328 104.024 488.809C104.024 505.291 117.362 518.652 133.815 518.652Z" fill="white"/>
<path d="M133.815 505.087C141.294 505.087 147.357 499.014 147.357 491.522C147.357 484.031 141.294 477.958 133.815 477.958C126.337 477.958 120.274 484.031 120.274 491.522C120.274 499.014 126.337 505.087 133.815 505.087Z" fill="black"/>
<path fill-rule="evenodd" clip-rule="evenodd" d="M133.815 479.511C127.197 479.511 121.827 484.886 121.827 491.522C121.827 498.158 127.197 503.533 133.815 503.533C140.434 503.533 145.803 498.158 145.803 491.522C145.803 484.886 140.434 479.511 133.815 479.511ZM118.72 491.522C118.72 483.175 125.476 476.404 133.815 476.404C142.154 476.404 148.91 483.175 148.91 491.522C148.91 499.87 142.154 506.641 133.815 506.641C125.476 506.641 118.72 499.87 118.72 491.522Z" fill="black"/>
<path d="M220.48 515.939C236.933 515.939 250.27 502.578 250.27 486.096C250.27 469.615 236.933 456.254 220.48 456.254C204.027 456.254 190.689 469.615 190.689 486.096C190.689 502.578 204.027 515.939 220.48 515.939Z" fill="white"/>
<path d="M223.188 502.374C230.666 502.374 236.729 496.301 236.729 488.809C236.729 481.318 230.666 475.245 223.188 475.245C215.709 475.245 209.646 481.318 209.646 488.809C209.646 496.301 215.709 502.374 223.188 502.374Z" fill="black"/>
<path fill-rule="evenodd" clip-rule="evenodd" d="M223.188 476.798C216.569 476.798 211.2 482.174 211.2 488.809C211.2 495.445 216.569 500.821 223.188 500.821C229.806 500.821 235.176 495.445 235.176 488.809C235.176 482.174 229.806 476.798 223.188 476.798ZM208.093 488.809C208.093 480.462 214.849 473.691 223.188 473.691C231.527 473.691 238.283 480.462 238.283 488.809C238.283 497.157 231.527 503.928 223.188 503.928C214.849 503.928 208.093 497.157 208.093 488.809Z" fill="black"/>
<path fill-rule="evenodd" clip-rule="evenodd" d="M253.335 531.922C253.618 533.614 252.475 535.216 250.783 535.499L211.444 542.076L122.002 552.936C120.299 553.143 118.751 551.929 118.544 550.226C118.337 548.522 119.55 546.973 121.254 546.766L210.557 535.923L249.758 529.369C251.451 529.086 253.052 530.229 253.335 531.922Z" fill="black"/>
</g>
<defs>
<clipPath id="clip0_95_6341">
<rect width="360" height="740" fill="white"/>
</clipPath>
</defs>
</svg>
