<svg width="48" height="48" viewBox="0 0 48 48" fill="none" xmlns="http://www.w3.org/2000/svg">
<mask id="mask0_63_2167" style="mask-type:alpha" maskUnits="userSpaceOnUse" x="0" y="0" width="48" height="48">
<circle cx="24" cy="24" r="23.5" fill="white" stroke="#E0E0E0"/>
</mask>
<g mask="url(#mask0_63_2167)">
<path d="M15.7081 19.7113L15.717 19.7073C26.4101 15.8935 33.5508 18.4364 38.1126 22.0148C42.7454 25.6489 44.8238 30.4392 45.1367 31.1906C45.4675 31.9854 47.0005 36.2799 47.6776 41.6176C48.3577 46.9796 48.1483 53.1968 45.2071 58.0007C42.2656 62.8052 37.6705 65.1777 33.3786 66.3476C29.2682 67.468 25.5227 67.4617 23.944 67.4591C23.8725 67.459 23.8053 67.4589 23.7428 67.4589C22.4667 67.4589 17.3695 66.7989 12.3214 63.7495C7.32425 60.7309 2.37554 55.3771 1.21841 45.9177C0.0620003 36.4641 3.69159 29.9318 7.6154 25.7354C9.58467 23.6293 11.6294 22.1123 13.1818 21.1227C13.957 20.6285 14.6065 20.2677 15.0582 20.0321C15.284 19.9144 15.46 19.8282 15.5774 19.7723C15.6361 19.7444 15.68 19.7241 15.7081 19.7113Z" fill="#FF8D8D" stroke="#FF8D8D" stroke-width="2" stroke-miterlimit="10"/>
<path d="M20.4614 35.5381C22.1695 35.5381 23.5542 34.0785 23.5542 32.2781C23.5542 30.4776 22.1695 29.0181 20.4614 29.0181C18.7532 29.0181 17.3685 30.4776 17.3685 32.2781C17.3685 34.0785 18.7532 35.5381 20.4614 35.5381Z" fill="white"/>
<path d="M20.4613 34.0562C21.2377 34.0562 21.8671 33.3927 21.8671 32.5744C21.8671 31.756 21.2377 31.0925 20.4613 31.0925C19.6848 31.0925 19.0554 31.756 19.0554 32.5744C19.0554 33.3927 19.6848 34.0562 20.4613 34.0562Z" fill="black" stroke="black" stroke-miterlimit="10"/>
<path d="M29.4586 35.2415C31.1667 35.2415 32.5514 33.7819 32.5514 31.9815C32.5514 30.181 31.1667 28.7214 29.4586 28.7214C27.7504 28.7214 26.3657 30.181 26.3657 31.9815C26.3657 33.7819 27.7504 35.2415 29.4586 35.2415Z" fill="white"/>
<path d="M29.7397 33.7596C30.5161 33.7596 31.1455 33.0961 31.1455 32.2777C31.1455 31.4593 30.5161 30.7959 29.7397 30.7959C28.9633 30.7959 28.3339 31.4593 28.3339 32.2777C28.3339 33.0961 28.9633 33.7596 29.7397 33.7596Z" fill="black" stroke="black" stroke-miterlimit="10"/>
<path d="M19.196 38.9461L28.4746 37.7607L32.5515 37.0435" stroke="black" stroke-width="1.5" stroke-miterlimit="10"/>
</g>
<circle cx="24" cy="24" r="23.5" stroke="#E0E0E0"/>
</svg>
